# xmcd
#
# Track frame offsets:
#	150
#	13346
#	22963
#	32457
#	44296
#	58620
#	67977
#	80781
#	91370
#	104876
#	116346
#	126634
#	137268
#	152754
#	166191
#	182172
#	192801
#	203276
#	213510
#	223666
#	236549
#
# Disc length: 3344 seconds
#
# Revision: 0
# Processed by: cddbd v1.5.2PL0 Copyright (c) Steve Scherf et al.
# Submitted via: dBpowerAMP V4.0
#
DISCID=220d0e15
DTITLE=Larry Cunningham - 40 Shades of Green
DYEAR=1900
DGENRE=Easy Listening
TTITLE0=Good Old Country Music
TTITLE1=They Wouldn't Do It NOw
TTITLE2=Ballybunion By The Sea
TTITLE3=Night Coach to Dallas
TTITLE4=I Love You Because
TTITLE5=90 Years Old
TTITLE6=My Kathleen
TTITLE7=Is His Love Any Better Than Mine
TTITLE8=40 Shades of Green
TTITLE9=Pretty Little Girl From Omagh
TTITLE10=The Emerald Isle Express
TTITLE11=Come Back To Erin
TTITLE12=Blue Side of Lonesome
TTITLE13=Lough Gowna
TTITLE14=Me Ould Tambourine
TTITLE15=Lovely Leitrim
TTITLE16=There's Been a Change in You
TTITLE17=Seems Like I'm Always Leaving
TTITLE18=I Used to be a Railroad Bum
TTITLE19=That Old Bog Road
TTITLE20=Annaghdown
EXTD=
EXTT0=
EXTT1=
EXTT2=
EXTT3=
EXTT4=
EXTT5=
EXTT6=
EXTT7=
EXTT8=
EXTT9=
EXTT10=
EXTT11=
EXTT12=
EXTT13=
EXTT14=
EXTT15=
EXTT16=
EXTT17=
EXTT18=
EXTT19=
EXTT20=
PLAYORDER=
